<?xml version="1.0" standalone="no"?>
<!DOCTYPE svg PUBLIC "-//W3C//DTD SVG 20010904//EN" "http://www.w3.org/TR/2001/REC-SVG-20010904/DTD/svg10.dtd">
 <svg
  version="1.0"
  xmlns="http://www.w3.org/2000/svg"
  width="342.000000pt"
  height="342.000000pt"
  viewBox="0 0 342.000000 342.000000"
  preserveAspectRatio="xMidYMid meet"
>
  <metadata>
    Created by potrace 1.14, written by Peter Selinger 2001-2017
  </metadata>
  <g
    transform="translate(0.000000,342.000000) scale(0.100000,-0.100000)"
    fill="#000000"
    stroke="none"
  >
    <path
      d="M1952 3368 c-39 -4 -98 -15 -130 -24 -97 -27 -267 -123 -377 -211 -81 -65 -185 -151 -205 -170 -39 -36 -368 -293 -585 -458 -109 -82 -203 -154 -209 -160 -6 -5 -38 -32 -71 -60 -150 -126 -255 -246 -310 -354 -31 -62 -53 -172 -49 -244 3 -57 29 -178 45 -207 4 -8 16 -35 26 -60 10 -25 31 -67 46 -95 15 -27 30 -58 33 -68 4 -9 10 -17 15 -17 5 0 9 -5 9 -10 0 -16 104 -163 208 -295 82 -104 306 -338 398 -415 370 -313 712 -476 989 -474 62 1 163 14 190 24 14 5 25 7 25 5 0 -2 12 0 28 6 15 6 34 12 42 14 32 7 168 59 230 88 98 45 213 99 335 157 61 28 160 72 220 97 137 56 312 143 381 189 138 92 192 201 159 324 -28 102 -40 126 -268 518 -204 350 -218 500 -82 907 60 180 75 243 75 314 0 207 -194 400 -560 559 -89 38 -199 78 -245 88 -154 35 -253 43 -363 32z"
    />
  </g>
</svg>
